/* XPM */
static char *result[] = {
/* columns rows colors chars-per-pixel */
"16 16 5 1 ",
"  c gray15",
". c DimGray",
"X c gray57",
"o c gray80",
"O c None",
/* pixels */
"OOOOO   OOOOOOOO",
"OOOO Xoo OOOOOOO",
"OOO XX Xo OOOOOO",
"OO XX  oXo OOOOO",
"O XX  oXXXo OOOO",
" XX  oXXXXX OOOO",
" X  oXXXXXX OOOO",
" XXoXXXXXX OOOOO",
"O XXXXXXXXo OOOO",
"OO XXXXXXX.o OOO",
"OOO XXX XXX.o OO",
"OOOO   O XXX.o O",
"OOOOOOOOO oXX.o ",
"OOOOOOOOOO  XX. ",
"OOOOOOOOOOOO oX ",
"OOOOOOOOOOOOO  O"
};
