/* XPM */
static char *result[] = {
/* columns rows colors chars-per-pixel */
"24 24 3 1 ",
"  c #634A4A",
". c #3B2929",
"X c #2B1E1E",
/* pixels */
".   . ....XXXX.... .   .",
" .....XXXXXXXXXXXX..... ",
" ..XXXXXXXXXXXXXXXXXX.. ",
" .X.XXXXXXXXXXXXXXXX.X. ",
"..XXXXXXXXXXXXXXXXXXXX..",
" .XXXXXXXXXXXXXXXXXXXX. ",
".XXXXXXXXXXXXXXXXXXXXXX.",
".XXXXXXXXXXXXXXXXXXXXXX.",
".XXXXXXXXXXXXXXXXXXXXXX.",
".XXXXXXXXXXXXXXXXXXXXXX.",
".XXXXXXXXXXXXXXXXXXXXXX.",
"XXXXXXXXXXXXXXXXXXXXXXXX",
"XXXXXXXXXXXXXXXXXXXXXXXX",
".XXXXXXXXXXXXXXXXXXXXXX.",
".XXXXXXXXXXXXXXXXXXXXXX.",
".XXXXXXXXXXXXXXXXXXXXXX.",
".XXXXXXXXXXXXXXXXXXXXXX.",
".XXXXXXXXXXXXXXXXXXXXXX.",
" .XXXXXXXXXXXXXXXXXXXX. ",
"..XXXXXXXXXXXXXXXXXXXX..",
" .X.XXXXXXXXXXXXXXXX.X. ",
" ..XXXXXXXXXXXXXXXXXX.. ",
" .....XXXXXXXXXXXX..... ",
".   . ....XXXX.... .   ."
};
