/* XPM */
static char *_0cfde5ca3fb4257d8e78e7d1468046aBXqZ65bVgWZ0b12u[] = {
/* columns rows colors chars-per-pixel */
"24 24 3 1 ",
"  c gray30",
". c gray15",
"X c gray24",
/* pixels */
"........................",
".XXXXXXXXXXXXXXXXXXXXXX.",
".X XXXXXXXXXXXXXXXXXX X.",
".X.XXXXXXXXXXXXXXXXXX.X.",
".XXXXXXXXXXXXXXXXXXXXXX.",
".XXXXXXXXXXXXXXXXXXXXXX.",
".XXXXXXXXXXXXXXXXXXXXXX.",
".XXXXXXXXXXXXXXXXXXXXXX.",
".XXXXXXXXXXXXXXXXXXXXXX.",
".XXXXXXXXXXXXXXXXXXXXXX.",
".XXXXXXXXXXXXXXXXXXXXXX.",
".XXXXXXXXXXXXXXXXXXXXXX.",
".XXXXXXXXXXXXXXXXXXXXXX.",
".XXXXXXXXXXXXXXXXXXXXXX.",
".XXXXXXXXXXXXXXXXXXXXXX.",
".XXXXXXXXXXXXXXXXXXXXXX.",
".XXXXXXXXXXXXXXXXXXXXXX.",
".XXXXXXXXXXXXXXXXXXXXXX.",
".XXXXXXXXXXXXXXXXXXXXXX.",
".XXXXXXXXXXXXXXXXXXXXXX.",
".X XXXXXXXXXXXXXXXXXX X.",
".X.XXXXXXXXXXXXXXXXXX.X.",
".XXXXXXXXXXXXXXXXXXXXXX.",
"........................"
};
