/* XPM */
static char *result[] = {
/* columns rows colors chars-per-pixel */
"24 24 11 1 ",
"  c gray15",
". c #36542E",
"X c #507D45",
"o c #CF3232",
"O c #887000",
"+ c #B86E28",
"@ c #6CA85D",
"# c #B89600",
"$ c #FC9838",
"% c #E6D732",
"& c None",
/* pixels */
"&&&&&&&&&&&&&&&&&&&&&&&&",
"&&&&&&&&&&&&&&&&&&&&&&&&",
"&&&&&&&&&&   &&&&&&&&&&&",
"&&&&&&&&  %%%  &&&&&&&&&",
"&&&&&&& %%%%%%% &&&&&&&&",
"&&&&&& %%%%%%%%% &&&&&&&",
"&&&&&& %%%%$%%%% &&&&&&&",
"&&&&& %%%$$$%%%%% &&&&&&",
"&&&&&& $$$$$%%$%%  &&&&&",
"&&&&&&  $$ $$%$%% X  &&&",
"&&&&& $$$$ $$$  % .X@ &&",
"&&&&&&  $$$$$$+  % @X &&",
"&&&&&& $oo$$$  XX  .X &&",
"&&&&& . $$$$ XXX@X .XX &",
"&&&&  .X $  XXXX XX .X &",
"&&& $$ XX$XX    XXX .X &",
"&&& $$  XXX $$$XXX .X &&",
"&&&&  &&&    $$XX    &&&",
"&&&&&&&& ....    . &&&&&",
"&&&&&&& X.......XX &&&&&",
"&&&&&&   X     X  X &&&&",
"&&&&&& OO  &&&& OO  &&&&",
"&&&&& O##O &&&& O##O &&&",
"&&&&&     &&&&&&     &&&"
};
